<svg width="85" height="53" viewBox="0 0 85 53" fill="none" xmlns="http://www.w3.org/2000/svg">
<g clip-path="url(#clip0_2001_136)">
<path d="M59.5 8.5L42.3725 0L25.5 8.5V10.625H27.625V34H31.875V14.875H53.125V34H57.375V10.625H59.5V8.5ZM34 12.75V10.625H38.25V12.75H34ZM40.375 12.75V10.625H44.625V12.75H40.375ZM46.75 12.75V10.625H51V12.75H46.75Z" fill="#635EF2"/>
<path d="M38.25 19.125H36.125V17H34V23.375H40.375V17H38.25V19.125ZM38.25 27.625H36.125V25.5H34V31.875H40.375V25.5H38.25V27.625ZM46.75 27.625H44.625V25.5H42.5V31.875H48.875V25.5H46.75V27.625Z" fill="white"/>
</g>
<path d="M0.410156 47.396C0.410156 47.147 0.456543 46.8955 0.549316 46.6416C0.64209 46.3877 0.786133 46.1484 0.981445 45.9238C1.69434 46.2363 2.31445 46.4756 2.8418 46.6416C3.37402 46.8076 3.9209 46.8906 4.48242 46.8906C4.58496 46.8906 4.68994 46.8809 4.79736 46.8613C4.90967 46.8418 4.99756 46.8149 5.06104 46.7808C5.08545 46.7271 5.10498 46.6587 5.11963 46.5757C5.13428 46.4878 5.1416 46.417 5.1416 46.3633C5.1416 46.124 5.02686 45.9189 4.79736 45.748C4.56787 45.5771 4.26514 45.4062 3.88916 45.2354L3.63281 45.1108C2.90039 44.7349 2.31201 44.3979 1.86768 44.1001C1.42822 43.7974 1.05469 43.4019 0.74707 42.9136C0.444336 42.4204 0.292969 41.8174 0.292969 41.1045C0.292969 40.0596 0.583496 39.2222 1.16455 38.5923C1.75049 37.9624 2.68066 37.6475 3.95508 37.6475C5.04395 37.6475 5.90576 37.7134 6.54053 37.8452C6.8042 38.0015 7.03369 38.165 7.229 38.3359C7.4292 38.502 7.61963 38.7046 7.80029 38.9438C7.80029 39.2856 7.76611 39.6567 7.69775 40.0571C7.63428 40.4526 7.54395 40.8164 7.42676 41.1484C7.31445 41.4805 7.19238 41.7197 7.06055 41.8662C6.94824 41.9199 6.82373 41.9614 6.68701 41.9907C6.55029 42.0151 6.38184 42.0273 6.18164 42.0273C5.97168 42.0273 5.80078 42.0127 5.66895 41.9834C5.53711 41.9541 5.41504 41.9053 5.30273 41.8369L5.07568 40.3135C4.79248 40.2354 4.49219 40.1792 4.1748 40.145C3.85742 40.106 3.64258 40.0889 3.53027 40.0938C3.34961 40.1768 3.2251 40.2939 3.15674 40.4453C3.09326 40.5918 3.06152 40.7676 3.06152 40.9727C3.06152 41.1924 3.12012 41.3828 3.2373 41.5439C3.35938 41.7002 3.50586 41.8296 3.67676 41.9321C3.84766 42.0347 4.06738 42.1494 4.33594 42.2764L4.6582 42.4375C5.35645 42.8037 5.90576 43.1235 6.30615 43.397C6.70654 43.6704 7.04102 44.0171 7.30957 44.437C7.58301 44.8521 7.71973 45.355 7.71973 45.9458C7.71973 46.6343 7.53906 47.2275 7.17773 47.7256C6.81641 48.2188 6.35254 48.5752 5.78613 48.7949C5.47852 48.917 5.13916 49.0049 4.76807 49.0586C4.39697 49.1123 3.96729 49.1392 3.479 49.1392C3.14697 49.1392 2.79053 49.0977 2.40967 49.0146C2.02881 48.9316 1.65771 48.7852 1.29639 48.5752C0.939941 48.3652 0.654297 48.0845 0.439453 47.7329C0.419922 47.6401 0.410156 47.5278 0.410156 47.396ZM9.22119 44.957C9.22119 44.1611 9.2334 43.436 9.25781 42.7817L8.45947 42.6426C8.396 42.3984 8.35205 42.1836 8.32764 41.998C8.30322 41.8125 8.29102 41.6147 8.29102 41.4048L8.30566 41.2583C8.32031 41.1899 8.32764 41.1338 8.32764 41.0898L9.38965 40.8555C9.41406 40.5527 9.47021 40.2109 9.55811 39.8301C9.646 39.4492 9.73877 39.1685 9.83643 38.9878C9.99268 38.8706 10.1807 38.7827 10.4004 38.7241C10.6201 38.6655 10.8569 38.6362 11.1108 38.6362C11.3257 38.6362 11.5332 38.6582 11.7334 38.7021C11.9385 38.7412 12.1167 38.7949 12.2681 38.8633C12.2827 39.0293 12.29 39.2197 12.29 39.4346C12.29 39.7861 12.2729 40.1841 12.2388 40.6284L13.5278 40.394C13.7085 40.7065 13.7988 41.0459 13.7988 41.4121C13.7988 41.666 13.7671 41.8955 13.7036 42.1006C13.645 42.3057 13.562 42.5376 13.4546 42.7964C13.1323 42.8501 12.6904 42.8843 12.1289 42.8989C12.0605 43.6948 11.9092 44.8643 11.6748 46.4072L11.6382 46.6562L11.6528 46.6709L13.374 46.1362C13.7305 46.4341 13.9478 46.8931 14.0259 47.5132C14.0259 47.5474 13.8672 47.7085 13.5498 47.9966C13.2373 48.2798 12.8442 48.5435 12.3706 48.7876C11.897 49.0269 11.3818 49.1465 10.8252 49.1465C9.85352 49.1465 9.33594 48.5532 9.27246 47.3667C9.23828 46.7661 9.22119 45.9629 9.22119 44.957ZM14.5239 44.6714C14.5239 43.7876 14.6655 43.021 14.9487 42.3716C15.2319 41.7222 15.6665 41.2192 16.2524 40.8628C16.8384 40.5015 17.5732 40.3208 18.457 40.3208C19.4336 40.3208 20.2002 40.5039 20.7568 40.8701C21.3135 41.2314 21.7017 41.7344 21.9214 42.3789C22.146 43.0234 22.2583 43.812 22.2583 44.7446C22.2583 45.5894 22.1094 46.3438 21.8115 47.0078C21.5186 47.667 21.0742 48.1895 20.4785 48.5752C19.8877 48.9561 19.1626 49.1465 18.3032 49.1465C16.9751 49.1465 16.0132 48.7388 15.4175 47.9233C14.8218 47.103 14.5239 46.019 14.5239 44.6714ZM18.6035 47.0005C18.8525 47.0005 19.0039 46.981 19.0576 46.9419C19.1699 46.7466 19.2554 46.4707 19.314 46.1143C19.3726 45.7578 19.4019 45.3721 19.4019 44.957C19.4019 44.5762 19.3774 44.2197 19.3286 43.8877C19.2798 43.5508 19.2114 43.2871 19.1235 43.0967C19.0698 43.0332 18.9624 42.9868 18.8013 42.9575C18.6401 42.9233 18.4644 42.9062 18.2739 42.9062C18.0249 42.9062 17.854 42.9331 17.7612 42.9868C17.5171 43.4067 17.395 43.9902 17.395 44.7373C17.395 45.0889 17.4219 45.4478 17.4756 45.814C17.5293 46.1802 17.5977 46.5122 17.6807 46.8101C17.7393 46.8735 17.8589 46.9224 18.0396 46.9565C18.2202 46.9858 18.4082 47.0005 18.6035 47.0005ZM23.1958 44.7446C23.1958 43.8999 23.3374 43.1455 23.6206 42.4814C23.9038 41.8174 24.3408 41.2925 24.9316 40.9067C25.5273 40.5161 26.2695 40.3208 27.1582 40.3208C27.4609 40.3208 27.8076 40.3403 28.1982 40.3794C28.5938 40.4136 28.9722 40.4673 29.3335 40.5405L29.48 40.6431C29.6997 40.7944 29.8608 40.9165 29.9634 41.0093C30.0708 41.0972 30.1831 41.2217 30.3003 41.3828C30.3003 41.6465 30.2637 42.0103 30.1904 42.4741C30.1221 42.9331 30.0342 43.3604 29.9268 43.7559C29.8193 44.1514 29.7168 44.4053 29.6191 44.5176C29.458 44.6006 29.1968 44.6421 28.8354 44.6421C28.6597 44.6421 28.4937 44.6299 28.3374 44.6055C28.186 44.5762 28.0713 44.5396 27.9932 44.4956L27.8394 43.1406C27.7661 43.0576 27.5977 42.9917 27.334 42.9429C27.0752 42.8892 26.8359 42.8623 26.6162 42.8623C26.5479 42.8623 26.4844 42.8672 26.4258 42.877C26.3135 43.1064 26.228 43.3994 26.1694 43.7559C26.1108 44.1123 26.0815 44.4761 26.0815 44.8472C26.0815 45.3843 26.1694 45.8408 26.3452 46.2168C26.521 46.5879 26.8799 46.7734 27.4219 46.7734C27.6904 46.7734 27.9541 46.7295 28.2129 46.6416C28.4766 46.5537 28.8086 46.4194 29.209 46.2388C29.375 46.1606 29.4995 46.1045 29.5825 46.0703C29.7778 46.2656 29.9316 46.4707 30.0439 46.6855C30.1562 46.9004 30.2295 47.1763 30.2637 47.5132C29.9512 47.8794 29.5117 48.2432 28.9453 48.6045C28.3838 48.9658 27.7271 49.1465 26.9751 49.1465C26.1743 49.1465 25.4883 48.9536 24.917 48.5679C24.3506 48.1772 23.9209 47.6499 23.6279 46.9858C23.3398 46.3169 23.1958 45.5698 23.1958 44.7446ZM31.604 44.2686C31.604 41.9834 31.6479 40.416 31.7358 39.5664L30.9082 39.4199C30.791 38.9707 30.7324 38.4873 30.7324 37.9697C30.8057 37.877 30.9424 37.7622 31.1426 37.6255C31.3428 37.4888 31.5747 37.3691 31.8384 37.2666C32.1069 37.1641 32.373 37.1128 32.6367 37.1128C33.291 37.1128 33.7988 37.2544 34.1602 37.5376C34.5264 37.8208 34.7095 38.3042 34.7095 38.9878C34.7095 39.3296 34.6851 39.8545 34.6362 40.5625C34.5874 41.2656 34.4971 42.1201 34.3652 43.126C34.2334 44.1318 34.0576 45.1816 33.8379 46.2754L33.9624 46.3486C34.3481 45.8164 34.7192 45.2305 35.0757 44.5908C35.4321 43.9463 35.7153 43.3481 35.9253 42.7964L35.2954 42.6426C35.2368 42.3105 35.2075 41.9175 35.2075 41.4634V41.1997C35.3931 40.9653 35.647 40.7603 35.9692 40.5845C36.2964 40.4087 36.7017 40.3208 37.1851 40.3208C37.5317 40.3208 37.832 40.3867 38.0859 40.5186C38.3398 40.6455 38.5352 40.8237 38.6719 41.0532C38.8086 41.2827 38.877 41.5464 38.877 41.8442C38.877 42.0688 38.8428 42.2812 38.7744 42.4814C38.7061 42.6768 38.6035 42.8843 38.4668 43.104C38.1152 43.6606 37.5024 44.4517 36.6284 45.4771C36.9214 45.8872 37.207 46.2437 37.4854 46.5464C37.5928 46.4927 37.6929 46.4219 37.7856 46.334C37.8833 46.2461 38.0078 46.1191 38.1592 45.9531L38.3203 45.7847L39.2212 46.4658C39.187 47.335 38.999 47.999 38.6572 48.458C38.3203 48.9121 37.8735 49.1392 37.3169 49.1392C36.7065 49.1392 36.2476 48.9536 35.9399 48.5825C35.6323 48.2114 35.4077 47.6865 35.2661 47.0078C34.729 47.5889 34.2554 48.0771 33.8452 48.4727C33.4399 48.8633 33.1738 49.0879 33.0469 49.1465C32.7783 49.1465 32.522 49.1147 32.2778 49.0513C32.0337 48.9878 31.853 48.8877 31.7358 48.751C31.6821 48.0576 31.6455 47.3716 31.626 46.6929C31.6113 46.0093 31.604 45.2012 31.604 44.2686ZM43.2129 47.396C43.2129 47.147 43.2593 46.8955 43.3521 46.6416C43.4448 46.3877 43.5889 46.1484 43.7842 45.9238C44.4971 46.2363 45.1172 46.4756 45.6445 46.6416C46.1768 46.8076 46.7236 46.8906 47.2852 46.8906C47.3877 46.8906 47.4927 46.8809 47.6001 46.8613C47.7124 46.8418 47.8003 46.8149 47.8638 46.7808C47.8882 46.7271 47.9077 46.6587 47.9224 46.5757C47.937 46.4878 47.9443 46.417 47.9443 46.3633C47.9443 46.124 47.8296 45.9189 47.6001 45.748C47.3706 45.5771 47.0679 45.4062 46.6919 45.2354L46.4355 45.1108C45.7031 44.7349 45.1147 44.3979 44.6704 44.1001C44.231 43.7974 43.8574 43.4019 43.5498 42.9136C43.2471 42.4204 43.0957 41.8174 43.0957 41.1045C43.0957 40.0596 43.3862 39.2222 43.9673 38.5923C44.5532 37.9624 45.4834 37.6475 46.7578 37.6475C47.8467 37.6475 48.7085 37.7134 49.3433 37.8452C49.6069 38.0015 49.8364 38.165 50.0317 38.3359C50.2319 38.502 50.4224 38.7046 50.603 38.9438C50.603 39.2856 50.5688 39.6567 50.5005 40.0571C50.437 40.4526 50.3467 40.8164 50.2295 41.1484C50.1172 41.4805 49.9951 41.7197 49.8633 41.8662C49.751 41.9199 49.6265 41.9614 49.4897 41.9907C49.353 42.0151 49.1846 42.0273 48.9844 42.0273C48.7744 42.0273 48.6035 42.0127 48.4717 41.9834C48.3398 41.9541 48.2178 41.9053 48.1055 41.8369L47.8784 40.3135C47.5952 40.2354 47.2949 40.1792 46.9775 40.145C46.6602 40.106 46.4453 40.0889 46.333 40.0938C46.1523 40.1768 46.0278 40.2939 45.9595 40.4453C45.896 40.5918 45.8643 40.7676 45.8643 40.9727C45.8643 41.1924 45.9229 41.3828 46.04 41.5439C46.1621 41.7002 46.3086 41.8296 46.4795 41.9321C46.6504 42.0347 46.8701 42.1494 47.1387 42.2764L47.4609 42.4375C48.1592 42.8037 48.7085 43.1235 49.1089 43.397C49.5093 43.6704 49.8438 44.0171 50.1123 44.437C50.3857 44.8521 50.5225 45.355 50.5225 45.9458C50.5225 46.6343 50.3418 47.2275 49.9805 47.7256C49.6191 48.2188 49.1553 48.5752 48.5889 48.7949C48.2812 48.917 47.9419 49.0049 47.5708 49.0586C47.1997 49.1123 46.77 49.1392 46.2817 49.1392C45.9497 49.1392 45.5933 49.0977 45.2124 49.0146C44.8315 48.9316 44.4604 48.7852 44.0991 48.5752C43.7427 48.3652 43.457 48.0845 43.2422 47.7329C43.2227 47.6401 43.2129 47.5278 43.2129 47.396ZM53.7817 44.1733C54.0698 44.1733 54.3872 44.2026 54.7339 44.2612C55.0854 44.3198 55.4077 44.3906 55.7007 44.4736V44.2466C55.7007 44.0952 55.6958 43.9268 55.686 43.7412C55.6812 43.5557 55.6714 43.4336 55.6567 43.375C55.6128 43.292 55.4858 43.2065 55.2759 43.1187C55.0708 43.0308 54.7339 42.9868 54.2651 42.9868C53.9771 42.9868 53.6792 43.0234 53.3716 43.0967C53.0688 43.165 52.7319 43.2578 52.3608 43.375C52.1606 43.043 51.9995 42.728 51.8774 42.4302C51.7603 42.1274 51.7017 41.8247 51.7017 41.522C51.7017 41.4292 51.709 41.3364 51.7236 41.2437C52.5146 40.6284 53.5376 40.3208 54.7925 40.3208C55.4858 40.3208 56.1011 40.3989 56.6382 40.5552C57.1753 40.7114 57.6172 41.0142 57.9639 41.4634C58.3105 41.9126 58.4839 42.5498 58.4839 43.375C58.4839 44.1807 58.3887 44.9619 58.1982 45.7188C58.0127 46.4707 57.9175 46.854 57.9126 46.8687L58.9746 46.4146C59.1162 46.5659 59.2407 46.7515 59.3481 46.9712C59.4604 47.186 59.5312 47.4351 59.5605 47.7183C59.4922 47.8647 59.3433 48.0527 59.1138 48.2822C58.8843 48.5068 58.6035 48.707 58.2715 48.8828C57.9395 49.0586 57.5928 49.1465 57.2314 49.1465C56.8262 49.1465 56.5186 49.0269 56.3086 48.7876C56.1035 48.5483 56.001 48.2383 56.001 47.8574C56.001 47.6426 56.0327 47.4253 56.0962 47.2056L55.8765 47.1396C55.7397 47.9111 55.4492 48.4385 55.0049 48.7217C54.5605 49.0049 54.0698 49.1465 53.5327 49.1465C53.1812 49.1465 52.8418 49.0488 52.5146 48.8535C52.1875 48.6533 51.9214 48.3652 51.7163 47.9893C51.5112 47.6084 51.4087 47.1641 51.4087 46.6562C51.4087 45.8457 51.6113 45.2305 52.0166 44.8105C52.4219 44.3857 53.0103 44.1733 53.7817 44.1733ZM54.6167 46.9639C54.7388 46.9395 54.8828 46.8711 55.0488 46.7588C55.2197 46.6465 55.3711 46.5122 55.5029 46.356C55.6348 46.1997 55.7129 46.0508 55.7373 45.9092L55.6934 45.7334C55.4346 45.6992 55.1587 45.6821 54.8657 45.6821C54.6167 45.6821 54.4458 45.7017 54.353 45.7407C54.1968 45.9165 54.1187 46.1118 54.1187 46.3267C54.1187 46.4829 54.1577 46.6245 54.2358 46.7515C54.3188 46.8784 54.4458 46.9492 54.6167 46.9639ZM62.4023 45.543C62.1631 45.1719 61.875 44.6738 61.5381 44.0488C61.2061 43.4238 60.8789 42.7573 60.5566 42.0493C60.2393 41.3413 59.9902 40.6943 59.8096 40.1084L58.6963 39.9546C58.623 39.6567 58.5742 39.4102 58.5498 39.2148C58.5254 39.0146 58.5156 38.7852 58.5205 38.5264C58.6182 38.4043 58.7939 38.2749 59.0479 38.1382C59.2969 37.9966 59.585 37.8794 59.9121 37.7866C60.2393 37.6938 60.5615 37.6475 60.8789 37.6475C61.7871 37.6475 62.356 37.9893 62.5854 38.6729C62.6782 38.8877 62.8198 39.2808 63.0103 39.8521C63.2056 40.4185 63.4033 41.0581 63.6035 41.771C63.8037 42.4839 63.96 43.1553 64.0723 43.7852C64.3701 43.1895 64.6655 42.5303 64.9585 41.8076C65.2515 41.085 65.4468 40.5137 65.5444 40.0938H65.5298L64.6362 39.9399C64.563 39.6421 64.5142 39.3955 64.4897 39.2002C64.4653 39 64.4556 38.7705 64.4604 38.5117C64.5581 38.3896 64.7314 38.2603 64.9805 38.1235C65.2344 37.9819 65.5249 37.8647 65.8521 37.772C66.1792 37.6792 66.5015 37.6328 66.8188 37.6328C67.7563 37.6328 68.3301 37.9941 68.54 38.7168C68.5938 38.8975 68.6206 39.0757 68.6206 39.2515C68.6206 39.7739 68.4033 40.4355 67.9688 41.2363C67.5342 42.0371 67.0337 42.8159 66.4673 43.5728C65.9009 44.3296 65.415 44.9277 65.0098 45.3672C64.9072 45.9971 64.8145 46.4902 64.7314 46.8467L64.7461 46.8613L65.8301 46.4072C66.2109 46.7344 66.4331 47.1689 66.4966 47.7109C66.4966 47.7402 66.3794 47.8794 66.145 48.1284C65.9155 48.3774 65.6152 48.6094 65.2441 48.8242C64.873 49.0342 64.4556 49.1392 63.9917 49.1392C63.5132 49.1392 63.125 49.0049 62.8271 48.7363C62.5293 48.4678 62.3828 48.0088 62.3877 47.3594L62.4023 45.543ZM71.3452 44.1733C71.6333 44.1733 71.9507 44.2026 72.2974 44.2612C72.6489 44.3198 72.9712 44.3906 73.2642 44.4736V44.2466C73.2642 44.0952 73.2593 43.9268 73.2495 43.7412C73.2446 43.5557 73.2349 43.4336 73.2202 43.375C73.1763 43.292 73.0493 43.2065 72.8394 43.1187C72.6343 43.0308 72.2974 42.9868 71.8286 42.9868C71.5405 42.9868 71.2427 43.0234 70.9351 43.0967C70.6323 43.165 70.2954 43.2578 69.9243 43.375C69.7241 43.043 69.563 42.728 69.4409 42.4302C69.3237 42.1274 69.2651 41.8247 69.2651 41.522C69.2651 41.4292 69.2725 41.3364 69.2871 41.2437C70.0781 40.6284 71.1011 40.3208 72.356 40.3208C73.0493 40.3208 73.6646 40.3989 74.2017 40.5552C74.7388 40.7114 75.1807 41.0142 75.5273 41.4634C75.874 41.9126 76.0474 42.5498 76.0474 43.375C76.0474 44.1807 75.9521 44.9619 75.7617 45.7188C75.5762 46.4707 75.481 46.854 75.4761 46.8687L76.5381 46.4146C76.6797 46.5659 76.8042 46.7515 76.9116 46.9712C77.0239 47.186 77.0947 47.4351 77.124 47.7183C77.0557 47.8647 76.9067 48.0527 76.6772 48.2822C76.4478 48.5068 76.167 48.707 75.835 48.8828C75.5029 49.0586 75.1562 49.1465 74.7949 49.1465C74.3896 49.1465 74.082 49.0269 73.8721 48.7876C73.667 48.5483 73.5645 48.2383 73.5645 47.8574C73.5645 47.6426 73.5962 47.4253 73.6597 47.2056L73.4399 47.1396C73.3032 47.9111 73.0127 48.4385 72.5684 48.7217C72.124 49.0049 71.6333 49.1465 71.0962 49.1465C70.7446 49.1465 70.4053 49.0488 70.0781 48.8535C69.751 48.6533 69.4849 48.3652 69.2798 47.9893C69.0747 47.6084 68.9722 47.1641 68.9722 46.6562C68.9722 45.8457 69.1748 45.2305 69.5801 44.8105C69.9854 44.3857 70.5737 44.1733 71.3452 44.1733ZM72.1802 46.9639C72.3022 46.9395 72.4463 46.8711 72.6123 46.7588C72.7832 46.6465 72.9346 46.5122 73.0664 46.356C73.1982 46.1997 73.2764 46.0508 73.3008 45.9092L73.2568 45.7334C72.998 45.6992 72.7222 45.6821 72.4292 45.6821C72.1802 45.6821 72.0093 45.7017 71.9165 45.7407C71.7603 45.9165 71.6821 46.1118 71.6821 46.3267C71.6821 46.4829 71.7212 46.6245 71.7993 46.7515C71.8823 46.8784 72.0093 46.9492 72.1802 46.9639ZM78.186 46.4146C78.6157 46.5854 78.96 46.7173 79.2188 46.8101C79.4775 46.9028 79.7607 46.9834 80.0684 47.0518C80.3809 47.1201 80.6909 47.1543 80.9985 47.1543C81.1353 47.1543 81.2329 47.1421 81.2915 47.1177C81.3062 47.0981 81.3184 47.0688 81.3281 47.0298C81.3428 46.9858 81.3501 46.9419 81.3501 46.8979C81.3501 46.8003 81.2939 46.7197 81.1816 46.6562C81.0059 46.5586 80.6934 46.4048 80.2441 46.1948C79.6289 45.9019 79.1406 45.6406 78.7793 45.4111C78.4229 45.1816 78.1201 44.8765 77.8711 44.4956C77.627 44.1147 77.5049 43.6362 77.5049 43.0601C77.5049 42.2349 77.7515 41.5732 78.2446 41.0752C78.7378 40.5723 79.519 40.3208 80.5884 40.3208C81.8628 40.3208 82.854 40.4868 83.562 40.8188C83.5962 40.9604 83.6133 41.1387 83.6133 41.3535C83.6133 41.7637 83.5498 42.1836 83.4229 42.6133C83.2959 43.0381 83.1299 43.353 82.9248 43.5581C82.6465 43.4653 82.2534 43.3164 81.7456 43.1113C81.3745 42.9648 81.0791 42.8525 80.8594 42.7744C80.6445 42.6914 80.4468 42.6328 80.2661 42.5986C80.1685 42.623 80.0903 42.6816 80.0317 42.7744C79.9731 42.8623 79.9438 42.9673 79.9438 43.0894C79.9438 43.1968 79.9756 43.2871 80.0391 43.3604C80.1025 43.4336 80.1733 43.4922 80.2515 43.5361C80.3345 43.5752 80.4517 43.6289 80.603 43.6973C80.6812 43.7314 80.7544 43.7632 80.8228 43.7925C80.8911 43.8169 80.9546 43.8413 81.0132 43.8657C81.394 44.0269 81.6943 44.1587 81.9141 44.2612C82.1338 44.3638 82.3462 44.4858 82.5513 44.6274C82.9272 44.8862 83.2227 45.1816 83.4375 45.5137C83.6523 45.8457 83.7598 46.2095 83.7598 46.605C83.7598 47.1519 83.6035 47.6255 83.291 48.0259C82.9834 48.4214 82.5879 48.7095 82.1045 48.8901C81.8506 48.9829 81.5723 49.0488 81.2695 49.0879C80.9717 49.1318 80.6226 49.1538 80.2222 49.1538C79.7485 49.1538 79.2603 49.0635 78.7573 48.8828C78.2593 48.6973 77.8784 48.3896 77.6147 47.96C77.6196 47.6621 77.6587 47.4033 77.7319 47.1836C77.8101 46.959 77.9614 46.7026 78.186 46.4146Z" fill="white"/>
<defs>
<clipPath id="clip0_2001_136">
<rect width="34" height="34" fill="white" transform="translate(25.5)"/>
</clipPath>
</defs>
</svg>
